<?xml version="1.0" standalone="no"?>
<!DOCTYPE svg PUBLIC "-//W3C//DTD SVG 20010904//EN"
 "http://www.w3.org/TR/2001/REC-SVG-20010904/DTD/svg10.dtd">
<svg version="1.0" xmlns="http://www.w3.org/2000/svg"
 width="512.000000pt" height="512.000000pt" viewBox="0 0 512.000000 512.000000"
 preserveAspectRatio="xMidYMid meet">
<metadata>
Created by potrace 1.11, written by Peter Selinger 2001-2013
</metadata>
<g transform="translate(0.000000,512.000000) scale(0.100000,-0.100000)"
fill="#000000" stroke="none">
<path d="M2468 4915 c-2 -1 -39 -5 -83 -8 -44 -3 -105 -11 -135 -17 -30 -6
-66 -13 -80 -15 -14 -2 -37 -8 -52 -14 -16 -6 -28 -9 -28 -6 0 2 -45 -11 -101
-31 -273 -95 -487 -229 -684 -430 -123 -125 -127 -129 -211 -256 -38 -57 -73
-106 -77 -109 -5 -3 -8 -8 -7 -10 1 -2 -3 -17 -9 -32 -7 -17 -15 -25 -23 -21
-7 4 -8 3 -4 -5 4 -7 -6 -40 -22 -74 -28 -57 -40 -87 -48 -112 -39 -124 -63
-209 -68 -241 -4 -21 -11 -40 -15 -42 -5 -2 -7 -12 -4 -23 3 -10 -1 -27 -8
-36 -10 -12 -11 -15 -1 -9 10 6 11 1 5 -21 -4 -15 -7 -43 -7 -60 -1 -18 -3
-33 -6 -33 -6 0 -3 -285 3 -325 3 -16 8 -50 11 -75 3 -25 8 -54 12 -65 5 -13
4 -16 -5 -11 -9 6 -10 4 -3 -10 16 -30 35 -100 36 -132 1 -17 4 -28 9 -25 4 2
8 -3 8 -11 2 -24 0 -18 52 -151 18 -44 31 -83 29 -87 -1 -5 2 -8 7 -8 8 0 24
-37 22 -52 -1 -5 4 -8 10 -8 6 0 8 -7 5 -16 -3 -8 -2 -13 3 -10 15 10 22 -26
9 -43 -11 -14 -11 -14 3 -4 13 11 18 8 30 -15 8 -15 20 -33 27 -41 7 -7 10
-21 7 -29 -3 -9 -3 -13 1 -9 10 9 45 -33 37 -46 -3 -5 -1 -7 4 -4 10 7 28 -20
25 -35 -1 -5 4 -8 12 -8 16 0 29 -27 21 -41 -4 -5 1 -6 10 -3 12 5 16 2 13
-12 -2 -14 2 -18 16 -16 14 3 17 -1 12 -13 -3 -9 -2 -14 3 -11 4 3 20 -8 36
-24 30 -31 30 -29 1 -157 -14 -64 -27 -161 -30 -218 -1 -11 -5 -26 -9 -32 -5
-7 -4 -13 0 -13 5 0 9 -33 10 -72 2 -80 8 -138 24 -211 6 -26 8 -54 5 -63 -3
-8 -2 -13 3 -10 11 7 34 -81 25 -97 -4 -7 -4 -9 1 -5 8 8 35 -35 35 -57 0 -11
52 -118 75 -155 5 -8 10 -21 12 -29 1 -8 5 -17 10 -20 16 -11 108 -146 105
-154 -1 -5 2 -6 7 -2 6 3 21 -10 33 -29 13 -20 26 -36 30 -36 4 0 26 -19 48
-41 29 -30 38 -45 31 -52 -6 -6 -11 -16 -11 -22 0 -5 5 -2 11 8 5 9 14 17 18
17 13 0 56 -41 54 -51 -2 -5 0 -8 5 -7 12 4 92 -44 87 -52 -3 -4 3 -7 13 -6 9
0 16 -5 14 -12 -1 -8 2 -11 6 -8 15 9 94 -33 86 -46 -4 -6 -3 -8 4 -4 12 7 92
-24 92 -37 0 -4 4 -6 9 -3 5 3 35 -3 67 -14 32 -11 69 -22 83 -25 13 -2 28
-10 33 -17 6 -11 8 -11 8 0 0 10 5 10 20 2 10 -6 23 -10 27 -9 24 4 74 -2 70
-8 -3 -5 14 -8 36 -7 23 1 48 -4 56 -10 10 -7 13 -7 8 0 -7 11 55 10 75 -2 6
-4 9 -3 5 2 -3 6 21 9 56 9 34 -1 77 2 95 6 21 5 32 3 32 -5 0 -6 4 -6 9 3 5
7 25 14 45 15 20 0 36 5 36 10 0 5 8 2 17 -5 9 -8 14 -9 10 -2 -8 14 46 28 64
17 7 -4 9 -3 6 3 -8 12 97 48 113 38 8 -5 11 -4 7 2 -8 13 20 26 36 16 7 -3 9
-3 5 2 -10 11 101 67 115 58 7 -3 9 -3 5 2 -4 4 9 18 28 31 39 27 48 30 38 12
-4 -8 -3 -10 2 -5 5 5 9 12 9 17 0 13 95 81 106 75 5 -4 8 -2 7 3 -4 15 102
113 114 105 7 -3 8 -1 4 5 -9 14 34 63 48 55 6 -3 8 -3 4 2 -11 12 12 47 27
41 9 -3 12 0 9 8 -3 7 2 21 11 30 9 9 14 16 11 16 -6 0 57 99 81 125 10 12 18
25 19 30 1 22 17 65 23 65 4 0 8 6 9 13 0 6 17 57 36 112 19 55 35 110 36 123
0 13 4 21 8 18 5 -3 6 8 4 25 -2 16 0 29 4 29 5 0 9 22 8 50 -1 28 1 50 5 50
11 0 0 268 -14 340 -3 14 -13 60 -24 103 l-19 78 25 30 c14 16 30 26 35 22 6
-3 8 -1 5 4 -9 14 53 84 66 76 6 -4 7 -1 2 7 -4 7 -3 15 2 19 6 3 22 25 37 49
25 40 55 50 41 13 -5 -12 -4 -13 6 -4 9 9 9 15 0 27 -9 11 -6 23 17 60 16 25
33 42 37 38 5 -4 5 -1 1 5 -8 14 24 74 35 67 4 -2 11 1 15 7 5 8 3 9 -6 4 -7
-4 -11 -4 -9 2 33 80 63 141 69 138 5 -3 6 5 2 17 -4 18 -2 20 14 14 15 -6 16
-4 7 5 -11 11 -9 25 14 79 3 8 7 21 9 28 1 8 6 21 10 30 4 9 6 26 5 36 -2 14
2 17 15 12 14 -5 15 -4 5 8 -15 18 -5 59 12 49 7 -4 5 1 -3 11 -13 16 -12 20
5 32 10 8 13 14 7 14 -7 0 -12 7 -12 16 0 8 4 13 8 10 4 -2 7 13 6 35 -1 30 2
39 15 39 11 0 12 3 4 8 -8 5 -10 24 -7 57 11 99 3 425 -10 418 -5 -3 -7 10 -4
30 2 20 0 33 -4 31 -4 -3 -8 5 -8 18 0 27 -41 184 -65 248 -9 25 -17 50 -19
55 -12 40 -95 216 -107 225 -4 3 -9 15 -13 27 -4 13 -13 29 -19 36 -22 24 -57
76 -57 86 0 5 -3 11 -7 13 -16 7 -82 96 -76 102 4 3 -1 6 -10 6 -10 0 -17 4
-17 9 0 5 -20 30 -44 57 -25 26 -42 52 -39 58 3 5 1 6 -5 2 -13 -8 -53 24 -46
36 3 4 -1 8 -8 8 -8 0 -20 8 -29 18 -8 9 -30 28 -49 42 -18 14 -39 31 -46 38
-7 6 -15 12 -18 12 -5 0 -22 12 -60 45 -6 6 -23 16 -36 24 -95 55 -161 91
-200 109 -71 32 -125 55 -130 57 -3 0 -30 9 -60 20 -30 10 -60 20 -65 21 -6 1
-49 11 -95 22 -47 12 -103 23 -125 26 -22 3 -60 8 -85 12 -48 6 -267 14 -272
9z"/>
<path d="M4279 2753 c-13 -17 -13 -17 6 -3 11 8 22 16 24 17 2 2 0 3 -6 3 -6
0 -17 -8 -24 -17z"/>
<path d="M4210 2501 c0 -6 4 -13 10 -16 6 -3 7 1 4 9 -7 18 -14 21 -14 7z"/>
<path d="M4140 2366 c0 -2 8 -10 18 -17 15 -13 16 -12 3 4 -13 16 -21 21 -21
13z"/>
<path d="M4115 2300 c3 -5 8 -10 11 -10 2 0 4 5 4 10 0 6 -5 10 -11 10 -5 0
-7 -4 -4 -10z"/>
<path d="M1010 2240 c0 -5 5 -10 11 -10 5 0 7 5 4 10 -3 6 -8 10 -11 10 -2 0
-4 -4 -4 -10z"/>
<path d="M4075 2220 c3 -5 8 -10 11 -10 2 0 4 5 4 10 0 6 -5 10 -11 10 -5 0
-7 -4 -4 -10z"/>
<path d="M1110 2099 c0 -5 5 -7 10 -4 6 3 10 8 10 11 0 2 -4 4 -10 4 -5 0 -10
-5 -10 -11z"/>
<path d="M4015 2100 c3 -5 8 -10 11 -10 2 0 4 5 4 10 0 6 -5 10 -11 10 -5 0
-7 -4 -4 -10z"/>
<path d="M3919 2033 c-13 -16 -12 -17 4 -4 9 7 17 15 17 17 0 8 -8 3 -21 -13z"/>
<path d="M3993 2035 c0 -8 4 -12 9 -9 5 3 6 10 3 15 -9 13 -12 11 -12 -6z"/>
<path d="M3837 1952 c-14 -15 -14 -19 -3 -19 8 0 14 5 13 11 -1 6 4 10 11 8 8
-1 11 2 7 8 -8 13 -9 13 -28 -8z"/>
<path d="M1216 1942 c-3 -4 4 -9 15 -9 23 -2 25 3 4 10 -8 4 -16 3 -19 -1z"/>
<path d="M1505 640 c-3 -6 1 -7 9 -4 18 7 21 14 7 14 -6 0 -13 -4 -16 -10z"/>
<path d="M1550 606 c0 -2 7 -7 16 -10 8 -3 12 -2 9 4 -6 10 -25 14 -25 6z"/>
<path d="M1773 415 c0 -8 4 -12 9 -9 5 3 6 10 3 15 -9 13 -12 11 -12 -6z"/>
<path d="M3253 385 c0 -8 4 -12 9 -9 5 3 6 10 3 15 -9 13 -12 11 -12 -6z"/>
<path d="M1933 345 c0 -8 4 -12 9 -9 5 3 6 10 3 15 -9 13 -12 11 -12 -6z"/>
<path d="M3166 338 c3 -5 10 -6 15 -3 13 9 11 12 -6 12 -8 0 -12 -4 -9 -9z"/>
<path d="M3129 323 c-13 -16 -12 -17 4 -4 9 7 17 15 17 17 0 8 -8 3 -21 -13z"/>
<path d="M1876 313 c-6 -14 -5 -15 5 -6 7 7 10 15 7 18 -3 3 -9 -2 -12 -12z"/>
<path d="M3070 296 c0 -2 8 -10 18 -17 15 -13 16 -12 3 4 -13 16 -21 21 -21
13z"/>
<path d="M2130 259 c0 -5 5 -7 10 -4 6 3 10 8 10 11 0 2 -4 4 -10 4 -5 0 -10
-5 -10 -11z"/>
<path d="M3010 260 c0 -5 5 -10 11 -10 5 0 7 5 4 10 -3 6 -8 10 -11 10 -2 0
-4 -4 -4 -10z"/>
<path d="M2190 225 c0 -7 30 -13 34 -7 3 4 -4 9 -15 9 -10 1 -19 0 -19 -2z"/>
<path d="M3000 206 c0 -2 8 -10 18 -17 15 -13 16 -12 3 4 -13 16 -21 21 -21
13z"/>
<path d="M2295 181 c-3 -5 -2 -12 3 -15 5 -3 9 1 9 9 0 17 -3 19 -12 6z"/>
<path d="M2595 179 c-3 -4 2 -6 10 -5 21 3 28 13 10 13 -9 0 -18 -4 -20 -8z"/>
<path d="M2755 179 c-3 -4 2 -6 10 -5 21 3 28 13 10 13 -9 0 -18 -4 -20 -8z"/>
<path d="M2835 160 c-3 -5 -1 -10 4 -10 6 0 11 5 11 10 0 6 -2 10 -4 10 -3 0
-8 -4 -11 -10z"/>
<path d="M2185 120 c-3 -6 1 -7 9 -4 18 7 21 14 7 14 -6 0 -13 -4 -16 -10z"/>
</g>
</svg>
