<?xml version="1.0" encoding="UTF-8"?>
<svg width="63px" height="63px" viewBox="0 0 63 63" version="1.1" xmlns="http://www.w3.org/2000/svg" xmlns:xlink="http://www.w3.org/1999/xlink">
    <title>Group</title>
    <g id="Page-1" stroke="none" stroke-width="1" fill="none" fill-rule="evenodd">
        <g id="Artboard" transform="translate(-443.000000, -259.000000)">
            <g id="Group" transform="translate(443.000000, 259.000000)">
                <rect id="Rectangle" fill="#22273D" x="0" y="0" width="63" height="63" rx="9"></rect>
                <path d="M36.1804167,46.2225 L35.38875,48.25 C35.2406944,48.6852778 34.9791667,49.0348611 34.6041667,49.29875 C34.2291667,49.5626389 33.8101389,49.6945833 33.3470833,49.6945833 C32.5879167,49.6945833 31.9906944,49.3936111 31.5554167,48.7916667 C31.1201389,48.19 31.0275,47.5233333 31.2775,46.7916667 L37.3608333,29.9166667 C37.5461111,29.3797222 37.8679167,28.9445833 38.32625,28.61125 C38.7845833,28.2779167 39.3054167,28.11125 39.88875,28.11125 L41.8470833,28.11125 C42.4118056,28.11125 42.9280556,28.2779167 43.3958333,28.61125 C43.8633333,28.9445833 44.1897222,29.3797222 44.375,29.9166667 L50.4304167,46.7225 C50.6990278,47.4725 50.6111111,48.1552778 50.1666667,48.7708333 C49.7222222,49.3866667 49.1063889,49.6945833 48.3191667,49.6945833 C47.8563889,49.6945833 47.4258333,49.5580556 47.0275,49.285 C46.6294444,49.0116667 46.3516667,48.6527778 46.1941667,48.2083333 L45.4441667,46.2225 L36.1804167,46.2225 Z M26,36.875 L19.4166667,43.4583333 C18.9627778,43.8936111 18.4488889,44.1088889 17.875,44.1042427 C17.3008333,44.0997222 16.7961111,43.8705556 16.3608333,43.4166667 C15.9072222,42.9816667 15.6804167,42.4701389 15.6804167,41.8820833 C15.6804167,41.2940278 15.9072222,40.7825 16.3608333,40.3475 L22.9858333,33.7225 C21.4952778,32.1575 20.2684722,30.6505556 19.3054167,29.2016667 C18.3423611,27.7525 17.6294444,26.3705556 17.1666667,25.0558333 L22.13875,25.0558333 C22.4351389,25.8427778 22.92125,26.6991667 23.5970833,27.625 C24.2729167,28.5511111 25.1108333,29.5419444 26.1108333,30.5975 C27.2127778,29.3844444 28.2405556,27.9491667 29.1941667,26.2916667 C30.1480556,24.6344444 30.8240278,23.1113889 31.2220833,21.7225 L14.1804167,21.7225 C13.5693056,21.7225 13.0530556,21.5118056 12.6316667,21.0904167 C12.2105556,20.6690278 12,20.1527778 12,19.5416667 C12,18.9305556 12.2105556,18.4097222 12.6316667,17.9791667 C13.0530556,17.5486111 13.5693056,17.3333333 14.1804167,17.3333333 L23.9441667,17.3333333 L23.9441667,16.2083333 C23.9441667,15.5972222 24.1548611,15.0763889 24.57625,14.6458333 C24.9976389,14.2152778 25.5138889,14 26.125,14 C26.7361111,14 27.2569444,14.2152778 27.6875,14.6458333 C28.1180556,15.0763889 28.3333333,15.5972222 28.3333333,16.2083333 L28.3333333,17.3333333 L38.0691667,17.3333333 C38.6802778,17.3333333 39.2011111,17.5486111 39.6316667,17.9791667 C40.0622222,18.4097222 40.2775,18.9305556 40.2775,19.5416667 C40.2775,20.1527778 40.0622222,20.6690278 39.6316667,21.0904167 C39.2011111,21.5118056 38.6802778,21.7225 38.0691667,21.7225 L36,21.7225 C35.4536111,23.7130556 34.5530556,25.8055556 33.2983333,28 C32.0438889,30.1944444 30.6527778,32.1065278 29.125,33.73625 L31.625,36.2779167 L29.9441667,40.9583333 L26,36.875 Z M37.6108333,42.11125 L44,42.11125 L40.8054167,33.3058333 L37.6108333,42.11125 Z" id="Shape" fill="#736BFF" fill-rule="nonzero"></path>
            </g>
        </g>
    </g>
</svg>