<?xml version="1.0" encoding="UTF-8"?>
<svg width="133px" height="177px" viewBox="0 0 133 177" version="1.1" xmlns="http://www.w3.org/2000/svg" xmlns:xlink="http://www.w3.org/1999/xlink">
    <title>Group</title>
    <defs>
        <radialGradient cx="-200.834555%" cy="-141.806021%" fx="-200.834555%" fy="-141.806021%" r="709.084031%" id="radialGradient-1">
            <stop stop-color="#FFFFFF" stop-opacity="0.1" offset="0%"></stop>
            <stop stop-color="#FFFFFF" stop-opacity="0" offset="100%"></stop>
        </radialGradient>
    </defs>
    <g id="Page-1" stroke="none" stroke-width="1" fill="none" fill-rule="evenodd">
        <g id="Artboard" transform="translate(-130.000000, -85.000000)" fill-rule="nonzero">
            <g id="Group" transform="translate(130.900000, 85.700000)">
                <path d="M112.5,111.8 C114.1,116.6 114.9,121.7 114.9,127 C114.9,154.2 92.9,176.2 65.7,176.2 C38.5,176.2 16.5,154.2 16.5,127 C16.5,121.7 17.3,116.6 18.9,111.8 C8.9,101.7 2.2,88.3 0.5,73.5 C0.2,70.9 5.68434189e-14,68.3 5.68434189e-14,65.7 C5.68434189e-14,29.4 29.4,0 65.7,0 C68.5,0 71.2,0.2 73.9,0.5 C106.3,4.5 131.4,32.2 131.4,65.7 C131.4,83.7 124.1,99.9 112.5,111.8 Z" id="Path" fill="#37474F"></path>
                <path d="M65.7,77.8 C38.5,77.8 16.5,99.8 16.5,127 C16.5,154.2 38.5,176.2 65.7,176.2 C92.9,176.2 114.9,154.2 114.9,127 C114.9,99.8 92.8,77.8 65.7,77.8 Z" id="Cuff_bottom" fill="#64DD91"></path>
                <path d="M65.7,175.2 C38.7,175.2 16.8,153.4 16.5,126.5 C16.5,126.7 16.5,126.8 16.5,127 C16.5,154.2 38.5,176.2 65.7,176.2 C92.9,176.2 114.9,154.2 114.9,127 C114.9,126.8 114.9,126.7 114.9,126.5 C114.6,153.5 92.7,175.2 65.7,175.2 Z" id="Cuff_bottom_shade" fill="#263238" opacity="0.2"></path>
                <circle id="Keyhole" fill="#37474F" cx="65.7" cy="148" r="5.8"></circle>
                <path d="M65.7,3.8 C31.5,3.8 3.8,31.5 3.8,65.7 C3.8,84.3 12,101.1 25.1,112.4 C36,121.9 50.2,127.6 65.7,127.6 C81.2,127.6 95.4,121.9 106.3,112.4 C119.3,101.1 127.6,84.3 127.6,65.7 C127.5,31.5 99.8,3.8 65.7,3.8 Z" id="Cuff_bg" fill="#263238"></path>
                <path d="M89.5,104.2 C83.6,97.7 75.1,93.6 65.7,93.6 C56.2,93.6 47.7,97.7 41.9,104.2 C37.9,108.7 35.1,114.2 34.2,120.4 C43.3,126.2 54.2,129.5 65.8,129.5 C77.4,129.5 88.2,126.2 97.4,120.4 C96.3,114.2 93.5,108.6 89.5,104.2 Z" id="Body" fill="#64DD91"></path>
                <path d="M65.7,46.6 C55.2,46.6 46.6,55.1 46.6,65.7 C46.6,76.2 55.1,84.8 65.7,84.8 C76.2,84.8 84.8,76.3 84.8,65.7 C84.8,55.2 76.2,46.6 65.7,46.6 Z" id="Head" fill="#64DD91"></path>
                <path d="M65.7,46.6 C55.2,46.6 46.6,55.1 46.6,65.7 C46.6,76.2 55.1,84.8 65.7,84.8 C76.2,84.8 84.8,76.3 84.8,65.7 C84.8,55.2 76.2,46.6 65.7,46.6 Z" id="Head_-_finish" fill="url(#radialGradient-1)"></path>
                <path d="M73.9,0.5 C71.2,0.2 68.5,0 65.7,0 C29.4,0 0,29.4 0,65.7 C0,68.3 0.2,70.9 0.5,73.5 C2.5,90.1 10.6,104.8 22.6,115.3 C25.1,117.5 27.8,119.5 30.7,121.3 C40.8,127.7 52.8,131.4 65.7,131.4 C78.6,131.4 90.6,127.7 100.7,121.3 C103.6,119.5 106.3,117.5 108.8,115.3 C122.6,103.3 131.4,85.5 131.4,65.7 C131.4,32.2 106.3,4.6 73.9,0.5 Z M97.9,98.5 C96.1,100.3 94.2,101.9 92.1,103.3 C84.6,108.5 75.5,111.6 65.7,111.6 C55.9,111.6 46.8,108.5 39.3,103.3 C37.2,101.9 35.3,100.2 33.5,98.5 C33.4,98.4 33.3,98.3 33.2,98.2 C24.9,89.9 19.7,78.4 19.7,65.7 C19.7,40.3 40.3,19.7 65.7,19.7 C78.4,19.7 89.9,24.8 98.2,33.2 C106.5,41.5 111.7,53 111.7,65.7 C111.7,78.6 106.4,90.2 97.9,98.5 Z" id="Shape" fill="#37474F"></path>
            </g>
        </g>
    </g>
</svg>