<?xml version="1.0" encoding="utf-8"?>
<!-- Generator: Adobe Illustrator 19.2.1, SVG Export Plug-In . SVG Version: 6.00 Build 0)  -->
<svg version="1.1" id="Layer_1" xmlns="http://www.w3.org/2000/svg" xmlns:xlink="http://www.w3.org/1999/xlink" x="0px" y="0px"
	 viewBox="0 0 192 192" style="enable-background:new 0 0 192 192;" xml:space="preserve">
<style type="text/css">
	.st0{fill:#37474F;}
	.st1{fill:#0F9D58;}
	.st2{opacity:0.2;fill:#263238;enable-background:new    ;}
	.st3{fill:url(#Cuff_bottom_-_finish_1_);}
	.st4{fill:#424242;}
	.st5{fill:#263238;}
	.st6{display:none;fill:url(#Cuff_bg_-_finish_1_);}
	.st7{display:none;opacity:0.2;fill:#FFFFFF;enable-background:new    ;}
	.st8{fill:url(#Body_-_finish_1_);}
	.st9{fill:url(#Head_-_finish_1_);}
	.st10{display:none;}
	.st11{display:inline;opacity:0.2;fill:#FFFFFF;enable-background:new    ;}
	.st12{display:inline;opacity:0.2;fill:#202020;enable-background:new    ;}
	.st13{fill:url(#SVGID_1_);}
	.st14{opacity:0.2;}
	.st15{fill:#FFFFFF;}
	.st16{display:inline;}
</style>
<g id="Shadow_layer">
	<g id="shape">
		
			<image style="overflow:visible;opacity:0.2;enable-background:new    ;" width="145" height="189" xlink:href="20BE995B4659991C.png"  transform="matrix(1 0 0 1 23 5)">
		</image>
		<g>
			<path class="st0" d="M142.4,119.5c1.6,4.8,2.4,9.9,2.4,15.2c0,27.2-22,49.2-49.2,49.2s-49.2-22-49.2-49.2
				c0-5.3,0.8-10.4,2.4-15.2c-10-10.1-16.7-23.5-18.4-38.3c-0.3-2.6-0.5-5.2-0.5-7.8c0-36.3,29.4-65.7,65.7-65.7
				c2.8,0,5.5,0.2,8.2,0.5c32.4,4,57.5,31.7,57.5,65.2C161.3,91.4,154,107.6,142.4,119.5z"/>
		</g>
	</g>
</g>
<g id="Design_Here">
	<path id="Cuff_bottom" class="st1" d="M95.6,85.5c-27.2,0-49.2,22-49.2,49.2s22,49.2,49.2,49.2s49.2-22,49.2-49.2
		S122.7,85.5,95.6,85.5z"/>
	<path id="Cuff_bottom_shade" class="st2" d="M95.6,182.9c-27,0-48.9-21.8-49.2-48.7c0,0.2,0,0.3,0,0.5c0,27.2,22,49.2,49.2,49.2
		s49.2-22,49.2-49.2c0-0.2,0-0.3,0-0.5C144.5,161.2,122.6,182.9,95.6,182.9z"/>
	
		<radialGradient id="Cuff_bottom_-_finish_1_" cx="0.6201" cy="194.2992" r="271.2322" gradientTransform="matrix(1 0 0 -1 0 194)" gradientUnits="userSpaceOnUse">
		<stop  offset="0" style="stop-color:#FFFFFF;stop-opacity:0.1"/>
		<stop  offset="1" style="stop-color:#FFFFFF;stop-opacity:0"/>
	</radialGradient>
	<path id="Cuff_bottom_-_finish" class="st3" d="M95.6,85.5c-27.2,0-49.2,22-49.2,49.2s22,49.2,49.2,49.2s49.2-22,49.2-49.2
		S122.7,85.5,95.6,85.5z"/>
	<circle id="Keyhole" class="st4" cx="95.6" cy="155.7" r="5.8"/>
	<path id="Cuff_bg" class="st5" d="M95.6,11.5c-34.2,0-61.9,27.7-61.9,61.9c0,18.6,8.2,35.4,21.3,46.7c10.9,9.5,25.1,15.2,40.6,15.2
		s29.7-5.7,40.6-15.2c13-11.3,21.3-28.1,21.3-46.7C157.4,39.2,129.7,11.5,95.6,11.5z"/>
	
		<radialGradient id="Cuff_bg_-_finish_1_" cx="-117.924" cy="312.653" r="438.7561" gradientTransform="matrix(1 0 0 -1 0 194)" gradientUnits="userSpaceOnUse">
		<stop  offset="0" style="stop-color:#FFFFFF;stop-opacity:0.1"/>
		<stop  offset="1" style="stop-color:#FFFFFF;stop-opacity:0"/>
	</radialGradient>
	<path id="Cuff_bg_-_finish" class="st6" d="M95.6,11.5c-34.2,0-61.9,27.7-61.9,61.9c0,18.6,8.2,35.4,21.3,46.7
		c10.9,9.5,25.1,15.2,40.6,15.2s29.7-5.7,40.6-15.2c13-11.3,21.3-28.1,21.3-46.7C157.4,39.2,129.7,11.5,95.6,11.5z"/>
	<path id="Body" class="st1" d="M119.4,111.9c-5.9-6.5-14.4-10.6-23.8-10.6c-9.5,0-18,4.1-23.8,10.6c-4,4.5-6.8,10-7.7,16.2
		c9.1,5.8,20,9.1,31.6,9.1s22.4-3.3,31.6-9.1C126.2,121.9,123.4,116.3,119.4,111.9z"/>
	<path id="Body_tint" class="st7" d="M71.7,112.9c5.9-6.5,14.4-10.6,23.8-10.6c9.5,0,18,4.1,23.8,10.6c3.8,4.2,6.5,9.5,7.6,15.3
		c0.1,0,0.1-0.1,0.2-0.1c-1-6.2-3.8-11.7-7.8-16.2c-5.9-6.5-14.4-10.6-23.8-10.6c-9.5,0-18,4.1-23.8,10.6c-4,4.5-6.8,10-7.7,16.2
		c0.1,0,0.1,0.1,0.2,0.1C65.3,122.4,68,117.1,71.7,112.9z"/>
	
		<radialGradient id="Body_-_finish_1_" cx="-0.6981" cy="192.1123" r="269.6498" gradientTransform="matrix(1 0 0 -1 0 194)" gradientUnits="userSpaceOnUse">
		<stop  offset="0" style="stop-color:#FFFFFF;stop-opacity:0.1"/>
		<stop  offset="1" style="stop-color:#FFFFFF;stop-opacity:0"/>
	</radialGradient>
	<path id="Body_-_finish" class="st8" d="M119.4,111.9c-5.9-6.5-14.4-10.6-23.8-10.6c-9.5,0-18,4.1-23.8,10.6
		c-4,4.5-6.8,10-7.7,16.2c9.1,5.8,20,9.1,31.6,9.1s22.4-3.3,31.6-9.1C126.2,121.9,123.4,116.3,119.4,111.9z"/>
	<path id="Head" class="st1" d="M95.6,54.3c-10.5,0-19.1,8.5-19.1,19.1c0,10.5,8.5,19.1,19.1,19.1c10.5,0,19.1-8.5,19.1-19.1
		C114.7,62.9,106.1,54.3,95.6,54.3z"/>
	
		<radialGradient id="Head_-_finish_1_" cx="-0.2188" cy="193.8699" r="270.8701" gradientTransform="matrix(1 0 0 -1 0 194)" gradientUnits="userSpaceOnUse">
		<stop  offset="0" style="stop-color:#FFFFFF;stop-opacity:0.1"/>
		<stop  offset="1" style="stop-color:#FFFFFF;stop-opacity:0"/>
	</radialGradient>
	<path id="Head_-_finish" class="st9" d="M95.6,54.3c-10.5,0-19.1,8.5-19.1,19.1c0,10.5,8.5,19.1,19.1,19.1
		c10.5,0,19.1-8.5,19.1-19.1C114.7,62.9,106.1,54.3,95.6,54.3z"/>
	<g id="Head_shade_x2F_tint" class="st10">
		<path class="st11" d="M95.6,55.3c10.4,0,18.8,8.3,19.1,18.6c0-0.2,0-0.3,0-0.5c0-10.5-8.5-19.1-19.1-19.1s-19.1,8.5-19.1,19.1
			c0,0.2,0,0.3,0,0.5C76.8,63.6,85.2,55.3,95.6,55.3z"/>
		<path class="st12" d="M95.6,91.5c-10.4,0-18.8-8.3-19.1-18.6c0,0.2,0,0.3,0,0.5c0,10.5,8.5,19.1,19.1,19.1s19.1-8.5,19.1-19.1
			c0-0.2,0-0.3,0-0.5C114.4,83.2,105.9,91.5,95.6,91.5z"/>
	</g>
	<g id="Cuff_top">
		
			<image style="overflow:visible;opacity:0.1;enable-background:new    ;" width="151" height="151" xlink:href="20BE995B4659991D.png"  transform="matrix(1 0 0 1 22 0)">
		</image>
		<g>
			<path class="st0" d="M103.8,8.2c-2.7-0.3-5.4-0.5-8.2-0.5c-36.3,0-65.7,29.4-65.7,65.7c0,2.6,0.2,5.2,0.5,7.8
				c2,16.6,10.1,31.3,22.1,41.8c2.5,2.2,5.2,4.2,8.1,6c10.1,6.4,22.1,10.1,35,10.1s24.9-3.7,35-10.1c2.9-1.8,5.6-3.8,8.1-6
				c13.8-12,22.6-29.8,22.6-49.6C161.3,39.9,136.2,12.3,103.8,8.2z M127.8,106.2c-1.8,1.8-3.7,3.4-5.8,4.8
				c-7.5,5.2-16.6,8.3-26.4,8.3s-18.9-3.1-26.4-8.3c-2.1-1.4-4-3.1-5.8-4.8c-0.1-0.1-0.2-0.2-0.3-0.3c-8.3-8.3-13.5-19.8-13.5-32.5
				c0-25.4,20.6-46,46-46c12.7,0,24.2,5.1,32.5,13.5c8.3,8.3,13.5,19.8,13.5,32.5C141.6,86.3,136.3,97.9,127.8,106.2z"/>
		</g>
	</g>
	<g id="Cuff_top_-_finish">
		
			<radialGradient id="SVGID_1_" cx="0.3377" cy="193.7343" r="270.4318" gradientTransform="matrix(1 0 0 -1 0 194)" gradientUnits="userSpaceOnUse">
			<stop  offset="0" style="stop-color:#FFFFFF;stop-opacity:0.1"/>
			<stop  offset="1" style="stop-color:#FFFFFF;stop-opacity:0"/>
		</radialGradient>
		<path class="st13" d="M103.8,8.2c-2.7-0.3-5.4-0.5-8.2-0.5c-36.3,0-65.7,29.4-65.7,65.7c0,2.6,0.2,5.2,0.5,7.8
			c2,16.6,10.1,31.3,22.1,41.8c2.5,2.2,5.2,4.2,8.1,6c10.1,6.4,22.1,10.1,35,10.1s24.9-3.7,35-10.1c2.9-1.8,5.6-3.8,8.1-6
			c13.8-12,22.6-29.8,22.6-49.6C161.3,39.9,136.2,12.3,103.8,8.2z M127.8,106.2c-1.8,1.8-3.7,3.4-5.8,4.8
			c-7.5,5.2-16.6,8.3-26.4,8.3s-18.9-3.1-26.4-8.3c-2.1-1.4-4-3.1-5.8-4.8c-0.1-0.1-0.2-0.2-0.3-0.3c-8.3-8.3-13.5-19.8-13.5-32.5
			c0-25.4,20.6-46,46-46c12.7,0,24.2,5.1,32.5,13.5c8.3,8.3,13.5,19.8,13.5,32.5C141.6,86.3,136.3,97.9,127.8,106.2z"/>
	</g>
	<g id="Cuff_top_shade_x2F_tint" class="st14">
		<g>
			
				<image style="overflow:visible;opacity:0.1;enable-background:new    ;" width="111" height="65" xlink:href="20BE995B4659991B.png"  transform="matrix(1 0 0 1 42 19)">
			</image>
			<g>
				<path class="st5" d="M128.1,39.9c-8.3-8.3-19.8-13.5-32.5-13.5c-25.4,0-46,20.6-46,46c0,0.2,0,0.3,0,0.5
					c0.3-25.2,20.7-45.5,46-45.5c12.7,0,24.2,5.1,32.5,13.5c8.2,8.2,13.3,19.5,13.5,32c0-0.2,0-0.3,0-0.5
					C141.6,59.7,136.4,48.2,128.1,39.9z"/>
			</g>
		</g>
		<g>
			
				<image style="overflow:visible;opacity:0.1;enable-background:new    ;" width="151" height="86" xlink:href="20BE995B46599924.png"  transform="matrix(1 0 0 1 22 65)">
			</image>
			<g>
				<path class="st5" d="M138.7,122c-2.5,2.2-5.2,4.2-8.1,6c-10.1,6.4-22.1,10.1-35,10.1s-24.8-3.7-35-10.1c-2.9-1.8-5.6-3.8-8.1-6
					c-12-10.4-20.2-25.1-22.1-41.8c-0.3-2.4-0.4-4.7-0.5-7.2c0,0.1,0,0.2,0,0.4c0,2.6,0.2,5.2,0.5,7.8c2,16.6,10.1,31.3,22.1,41.8
					c2.5,2.2,5.2,4.2,8.1,6c10.1,6.4,22.1,10.1,35,10.1s24.9-3.7,35-10.1c2.9-1.8,5.6-3.8,8.1-6c13.8-12,22.6-29.8,22.6-49.6
					c0-0.2,0-0.4,0-0.5C161.1,92.5,152.4,110,138.7,122z"/>
			</g>
		</g>
		<g>
			
				<image style="overflow:visible;opacity:0.1;enable-background:new    ;" width="151" height="86" xlink:href="20BE995B46599927.png"  transform="matrix(1 0 0 1 22 0)">
			</image>
			<g>
				<path class="st15" d="M95.6,8.7c2.8,0,5.5,0.2,8.2,0.5c32.2,4,57.2,31.4,57.4,64.6c0-0.2,0-0.3,0-0.5
					c0-33.5-25.1-61.1-57.5-65.2c-2.7-0.3-5.4-0.5-8.2-0.5C59.2,7.6,29.8,37,29.8,73.3c0,0.2,0,0.4,0,0.6
					C30.1,37.9,59.4,8.7,95.6,8.7z"/>
			</g>
		</g>
		<g class="st10">
			
				<image style="display:inline;overflow:visible;opacity:0.1;enable-background:new    ;" width="111" height="66" xlink:href="20BE995B46599925.png"  transform="matrix(1 0 0 1 42 66)">
			</image>
			<g class="st16">
				<path class="st15" d="M63.1,106.9c0.1,0.1,0.2,0.2,0.3,0.3c1.8,1.8,3.7,3.4,5.8,4.8c7.5,5.2,16.6,8.3,26.4,8.3
					s18.9-3.1,26.4-8.3c2.1-1.4,4-3.1,5.8-4.8c8.5-8.3,13.8-20,13.8-32.8c0-0.2,0-0.3,0-0.5c-0.1,12.7-5.4,24.1-13.8,32.4
					c-1.8,1.8-3.7,3.4-5.8,4.8c-7.5,5.2-16.6,8.3-26.4,8.3s-18.9-3.1-26.4-8.3c-2.1-1.4-4-3.1-5.8-4.8c-0.1-0.1-0.2-0.2-0.3-0.3
					c-8.2-8.2-13.3-19.5-13.5-32c0,0.2,0,0.3,0,0.5C49.6,87.1,54.7,98.6,63.1,106.9z"/>
			</g>
		</g>
	</g>
</g>
</svg>
