<svg id="Base" xmlns="http://www.w3.org/2000/svg" viewBox="0 0 245.92 245.92"><defs><style>.cls-1{fill:#0f9d58;}.cls-2{fill:#2b2b2b;}</style></defs><title>ic_circle_hide_notifications</title><circle class="cls-1" cx="122.96" cy="122.96" r="122.96"/><path class="cls-2" d="M128,87.26A40.77,40.77,0,1,0,168.74,128,40.79,40.79,0,0,0,128,87.26Zm0,73.39A32.61,32.61,0,0,1,95.35,128a32.22,32.22,0,0,1,6.89-20l45.7,45.7A32.22,32.22,0,0,1,128,160.65ZM153.69,148L108,102.31a32.22,32.22,0,0,1,20-6.89A32.61,32.61,0,0,1,160.58,128,32.22,32.22,0,0,1,153.69,148Z" transform="translate(-5.04 -5.04)"/></svg>