<?xml version="1.0" encoding="utf-8"?>
<!-- Generator: Adobe Illustrator 19.2.1, SVG Export Plug-In . SVG Version: 6.00 Build 0)  -->
<svg version="1.1" id="Base" xmlns="http://www.w3.org/2000/svg" xmlns:xlink="http://www.w3.org/1999/xlink" x="0px" y="0px"
	 viewBox="0 0 256 256" style="enable-background:new 0 0 256 256;" xml:space="preserve">
<style type="text/css">
	.st0{fill:#0F9D58;}
	.st1{fill:#2B2B2B;}
</style>
<circle class="st0" cx="128" cy="128" r="123"/>
<path id="Break-in" class="st1" d="M128,154.5c5.3,0,9.6-4.3,9.6-9.6c0-5.3-4.3-9.6-9.6-9.6s-9.6,4.3-9.6,9.6
	C118.4,150.2,122.7,154.5,128,154.5z M156.9,111.1h-4.8v-9.6c0-13.3-10.8-24.1-24.1-24.1s-24.1,10.8-24.1,24.1h9.2
	c0-8.2,6.7-14.9,14.9-14.9s14.9,6.7,14.9,14.9v9.6H99.1c-5.3,0-9.6,4.3-9.6,9.6V169c0,5.3,4.3,9.6,9.6,9.6h57.8
	c5.3,0,9.6-4.3,9.6-9.6v-48.2C166.5,115.5,162.2,111.1,156.9,111.1z M156.9,169H99.1v-48.2h57.8V169z"/>
</svg>
