<?xml version="1.0" encoding="utf-8"?>
<!-- Generator: Adobe Illustrator 19.2.1, SVG Export Plug-In . SVG Version: 6.00 Build 0)  -->
<svg version="1.1" id="Base" xmlns="http://www.w3.org/2000/svg" xmlns:xlink="http://www.w3.org/1999/xlink" x="0px" y="0px"
	 viewBox="0 0 256 256" style="enable-background:new 0 0 256 256;" xml:space="preserve">
<style type="text/css">
	.st0{fill:#0F9D58;}
	.st1{display:none;fill:#2B2B2B;}
	.st2{fill:#2B2B2B;}
</style>
<circle class="st0" cx="128" cy="128" r="123"/>
<path id="Break-in" class="st1" d="M128,154.5c5.3,0,9.6-4.3,9.6-9.6c0-5.3-4.3-9.6-9.6-9.6s-9.6,4.3-9.6,9.6
	C118.4,150.2,122.7,154.5,128,154.5z M156.9,111.1h-4.8v-9.6c0-13.3-10.8-24.1-24.1-24.1s-24.1,10.8-24.1,24.1h9.2
	c0-8.2,6.7-14.9,14.9-14.9s14.9,6.7,14.9,14.9v9.6H99.1c-5.3,0-9.6,4.3-9.6,9.6V169c0,5.3,4.3,9.6,9.6,9.6h57.8
	c5.3,0,9.6-4.3,9.6-9.6v-48.2C166.5,115.5,162.2,111.1,156.9,111.1z M156.9,169H99.1v-48.2h57.8V169z"/>
<g id="Retry_email">
	<g>
		<path class="st2" d="M169.9,119.8h7.6c-2.5,10.1-10.1,18-20,20.8v-7.9C163.4,130.5,167.9,125.7,169.9,119.8z"/>
	</g>
	<g>
		<path class="st2" d="M178.6,83v25.9h-25.9l11.8-11.8c-3.9-3.9-9.6-6.5-15.5-6.5c-11,0-20.3,8.2-21.9,18.6h-7.3
			c1.7-14.9,14.1-26.2,29.3-26.2c8.2,0,15.5,3.4,20.8,8.7L178.6,83z"/>
	</g>
	<path class="st2" d="M149.7,108.9H85.5c-4.5,0-8.2,3.7-8.2,7.9v48.1c0,4.5,3.7,8.2,8.2,8.2h64.1c4.5,0,8.2-3.7,8.2-8.2v-48.1
		C157.5,112.5,154.2,108.9,149.7,108.9z M149.7,164.8H85.5v-39.9l32.1,20l32.1-20C149.7,124.9,149.7,164.8,149.7,164.8z M117.6,137
		l-32.1-20.3h64.1L117.6,137z"/>
</g>
</svg>
