<?xml version="1.0" encoding="utf-8"?>
<!-- Generator: Adobe Illustrator 19.2.1, SVG Export Plug-In . SVG Version: 6.00 Build 0)  -->
<svg version="1.1" id="Base" xmlns="http://www.w3.org/2000/svg" xmlns:xlink="http://www.w3.org/1999/xlink" x="0px" y="0px"
	 viewBox="0 0 256 256" style="enable-background:new 0 0 256 256;" xml:space="preserve">
<style type="text/css">
	.st0{fill:#424242;}
	.st1{opacity:8.000000e-02;}
	.st2{fill:#FFFFFF;}
	.st3{fill:url(#SVGID_1_);}
	.st4{fill:#0F9D58;}
	.st5{display:none;fill:#2B2B2B;}
	.st6{display:none;}
	.st7{display:inline;}
	.st8{fill:#2B2B2B;}
	.st9{display:inline;fill:#2B2B2B;}
</style>
<symbol  id="ui_x5F_dialog_x5F_dark_2" viewBox="80 -280 200 200">
	<g>
		<path class="st0" d="M280-278c0-1.1-0.9-2-2-2H82c-1.1,0-2,0.9-2,2v196c0,1.1,0.9,2,2,2h196c1.1,0,2-0.9,2-2V-278z"/>
		<g class="st1">
			<path class="st2" d="M278-80.5c0.8,0,1.5-0.7,1.5-1.5v-196c0-0.8-0.7-1.5-1.5-1.5H82c-0.8,0-1.5,0.7-1.5,1.5v196
				c0,0.8,0.7,1.5,1.5,1.5H278 M278-80H82c-1.1,0-2-0.9-2-2v-196c0-1.1,0.9-2,2-2h196c1.1,0,2,0.9,2,2v196C280-80.9,279.1-80,278-80
				L278-80z"/>
		</g>
		<g class="st1">
			<linearGradient id="SVGID_1_" gradientUnits="userSpaceOnUse" x1="180" y1="-280" x2="180" y2="-80">
				<stop  offset="0.8" style="stop-color:#FFFFFF;stop-opacity:0"/>
				<stop  offset="0.9725" style="stop-color:#FFFFFF;stop-opacity:0.8625"/>
				<stop  offset="1" style="stop-color:#FFFFFF"/>
			</linearGradient>
			<path class="st3" d="M278-80.5c0.8,0,1.5-0.7,1.5-1.5v-196c0-0.8-0.7-1.5-1.5-1.5H82c-0.8,0-1.5,0.7-1.5,1.5v196
				c0,0.8,0.7,1.5,1.5,1.5H278 M278-80H82c-1.1,0-2-0.9-2-2v-196c0-1.1,0.9-2,2-2h196c1.1,0,2,0.9,2,2v196C280-80.9,279.1-80,278-80
				L278-80z"/>
		</g>
	</g>
</symbol>
<circle class="st4" cx="128" cy="128" r="123"/>
<path id="Break-in" class="st5" d="M128,154.5c5.3,0,9.6-4.3,9.6-9.6c0-5.3-4.3-9.6-9.6-9.6s-9.6,4.3-9.6,9.6
	C118.4,150.2,122.7,154.5,128,154.5z M156.9,111.1h-4.8v-9.6c0-13.3-10.8-24.1-24.1-24.1s-24.1,10.8-24.1,24.1h9.2
	c0-8.2,6.7-14.9,14.9-14.9s14.9,6.7,14.9,14.9v9.6H99.1c-5.3,0-9.6,4.3-9.6,9.6V169c0,5.3,4.3,9.6,9.6,9.6h57.8
	c5.3,0,9.6-4.3,9.6-9.6v-48.2C166.5,115.5,162.2,111.1,156.9,111.1z M156.9,169H99.1v-48.2h57.8V169z"/>
<g id="Retry_email" class="st6">
	<g class="st7">
		<path class="st8" d="M169.9,119.8h7.6c-2.5,10.1-10.1,18-20,20.8v-7.9C163.4,130.5,167.9,125.7,169.9,119.8z"/>
	</g>
	<g class="st7">
		<path class="st8" d="M178.6,83v25.9h-25.9l11.8-11.8c-3.9-3.9-9.6-6.5-15.5-6.5c-11,0-20.3,8.2-21.9,18.6h-7.3
			c1.7-14.9,14.1-26.2,29.3-26.2c8.2,0,15.5,3.4,20.8,8.7L178.6,83z"/>
	</g>
	<path class="st9" d="M149.7,108.9H85.5c-4.5,0-8.2,3.7-8.2,7.9v48.1c0,4.5,3.7,8.2,8.2,8.2h64.1c4.5,0,8.2-3.7,8.2-8.2v-48.1
		C157.5,112.5,154.2,108.9,149.7,108.9z M149.7,164.8H85.5v-39.9l32.1,20l32.1-20C149.7,124.9,149.7,164.8,149.7,164.8z M117.6,137
		l-32.1-20.3h64.1L117.6,137z"/>
</g>
<g id="Alert_Dialog" class="st6">
	
		<use xlink:href="#ui_x5F_dialog_x5F_dark_2"  width="200" height="200" id="XMLID_58_" x="80" y="-280" transform="matrix(0.5092 0 0 -0.3237 36.3476 69.7266)" style="overflow:visible;"/>
	<path class="st9" d="M178,96H78c-0.6,0-1,0.4-1,1v63c0,0.6,0.4,1,1,1h100c0.6,0,1-0.4,1-1V97C179,96.4,178.6,96,178,96z M138,131
		c0,0.6-0.4,1-1,1H89c-0.6,0-1-0.4-1-1v-5c0-0.6,0.4-1,1-1h48c0.6,0,1,0.4,1,1V131z M168,152c0,0.6-0.4,1-1,1h-14c-0.6,0-1-0.4-1-1
		v-5c0-0.6,0.4-1,1-1h14c0.6,0,1,0.4,1,1V152z M169,121c0,0.6-0.4,1-1,1H89c-0.6,0-1-0.4-1-1v-5c0-0.6,0.4-1,1-1h79c0.6,0,1,0.4,1,1
		V121z M169,112c0,0.6-0.4,1-1,1H89c-0.6,0-1-0.4-1-1v-5c0-0.6,0.4-1,1-1h79c0.6,0,1,0.4,1,1V112z"/>
</g>
<path id="Sim_card" class="st8" d="M77,96v64h81.9l20.1-19.7V96H77z M88,106h11v8H88V106z M88,122h22v8H88V122z M99,147H88v-8h11
	V147z M131,147h-21v-8h21V147z M131,130h-10v-8h10V130z M131,114h-21v-8h21V114z"/>
</svg>
