<?xml version="1.0" encoding="utf-8"?>
<!-- Generator: Adobe Illustrator 19.2.1, SVG Export Plug-In . SVG Version: 6.00 Build 0)  -->
<svg version="1.1" id="Layer_1" xmlns="http://www.w3.org/2000/svg" xmlns:xlink="http://www.w3.org/1999/xlink" x="0px" y="0px"
	 viewBox="0 0 640 480" style="enable-background:new 0 0 640 480;" xml:space="preserve">
<style type="text/css">
	.st0{fill:#FFFFFF;}
</style>
<g>
	<title>Layer 1</title>
	<g id="layer1">
		<path id="path2816" class="st0" d="M530.6,76.1c0.4,0.5-7.6,7.3-22.7,19.2s-37.1,28.9-64.8,50s-60.9,46.2-98.3,74.2
			c-37.4,28-78.9,59-123.1,91.8h0c-16.5-16.9-33.4-34.2-50.6-51.8c-9.8-10-19.4-19.9-28.9-29.6c0,0,0,0,0,0
			c54.2-22.2,105.5-43.1,152-61.9c46.5-18.8,88.2-35.6,123.2-49.4c35-13.8,63.2-24.7,82.7-32C519.5,79.2,530.3,75.5,530.6,76.1
			s-10.1,5.4-29.2,13.6c-19,8.1-46.8,19.6-81.2,33.5s-75.7,30.4-121.8,48.6s-97,38.1-150.8,59.2c0,0,0,0,0,0
			c9,8.7,18,17.6,27.2,26.5c16.2,15.8,32,31.2,47.5,46.4c0,0,0,0,0,0c43.2-32.7,83.9-63.4,120.7-91.1s69.8-52.2,97.4-72.6
			c27.6-20.4,50-36.7,65.5-47.7C521.5,81.4,530.2,75.6,530.6,76.1z"/>
		<path id="path2820" class="st0" d="M529.2,76.1c0.2,0.6-11,4.1-31.5,10s-50.4,14.1-87.6,24.2c-37.2,10-81.9,21.9-131.9,35
			c-50,13.1-105.3,27.5-164,42.6c0,0,0,0,0,0c-12.4-16.8-25.1-34-38-51.4c-4.6-6.2-9.1-12.3-13.6-18.4
			c128.1-12.2,243.5-23,327.5-30.5S526.5,75.6,529.2,76.1C529.2,76.1,529.2,76.1,529.2,76.1C529.2,76.1,529.2,76.1,529.2,76.1
			c-2.5,0.9-54.7,6.3-137.9,14.2c-83.2,7.9-197.3,18.3-324.2,29.6c4.4,5.3,8.7,10.5,13.2,15.8c12.4,15,24.7,29.7,36.7,44.3
			c0,0,0,0,0,0c57.9-15.3,112.5-29.6,161.9-42.4c49.4-12.8,93.6-24.1,130.6-33.5c37-9.3,66.9-16.7,87.5-21.5
			C517.6,77.8,529,75.5,529.2,76.1L529.2,76.1z"/>
		<path id="path2852" class="st0" d="M117.7,181.8c0.7,0.2,0.6,3-0.2,7.8c-0.8,4.9-2.3,11.8-4.5,20.2c-2.2,8.4-5,18.4-8.3,29.4
			c-3.3,11-7,23.1-11,35.8c-1.6,5.1-3.2,10.1-4.7,15h0c7.3-8.7,14.2-16.9,20.5-24.1c6.3-7.3,12.1-13.6,17-18.9
			c5-5.2,9.1-9.2,12.2-11.9s5-3.8,5.4-3.4c0.5,0.4-0.6,2.4-3.1,5.7s-6.3,7.7-11.3,13.1c-5,5.4-11.2,11.8-18.3,18.8
			c-7.1,7-15.1,14.7-23.6,22.8l0,0c1.1-5.1,2.3-10.3,3.5-15.7c3-13.2,5.8-25.9,8.6-37.3s5.4-21.7,7.7-30.3
			c2.4-8.6,4.5-15.4,6.3-20.1C115.7,184.1,117.1,181.6,117.7,181.8z"/>
		<path id="path2864" class="st0" d="M88.3,291.6c-0.6-0.9,17.9-9.6,41.2-19.3c23.3-9.7,42.8-16.9,43.4-15.9
			c0.6,0.9-17.9,9.6-41.2,19.3S88.9,292.5,88.3,291.6z"/>
	</g>
</g>
</svg>
